<?xml version="1.0" encoding="UTF-8" standalone="no"?>
<!DOCTYPE svg PUBLIC "-//W3C//DTD SVG 1.1//EN" "http://www.w3.org/Graphics/SVG/1.1/DTD/svg11.dtd">
<svg width="100%" height="100%" viewBox="0 0 1024 1024" version="1.1" xmlns="http://www.w3.org/2000/svg" xmlns:xlink="http://www.w3.org/1999/xlink" xml:space="preserve" xmlns:serif="http://www.serif.com/" style="fill-rule:evenodd;clip-rule:evenodd;stroke-linejoin:round;stroke-miterlimit:2;">
    <path d="M555.815,40.225C577.818,39.489 588.215,46.944 607.07,56.316L637.722,71.522C658.094,81.603 692.19,95.942 706.651,111.599C744.708,152.805 757.383,223.175 770.329,275.786L802.878,405.41L812.386,442.636C813.506,447.144 815.89,460.027 818.096,463.045L818.686,462.946C820.236,458.737 818.279,447.409 818.58,441.915C824.974,437.814 851.164,433.917 859.987,432.46C871.357,437.373 882.321,444 893.357,449.672C914.733,460.66 936.262,471.432 957.512,482.655C961.36,484.687 967.33,487.332 970.046,490.77C973.8,495.519 988.164,542.151 990.758,550.789C991.639,553.724 992.172,556.786 991.687,559.845C989.833,571.537 972.218,608.526 965.786,620.64C946.786,656.426 922.023,688.938 887.576,711.076C877.836,717.336 867.414,722.855 856.3,726.2C843.054,730.268 829.015,731.035 815.404,728.437C791.404,723.874 763.513,706.134 741.265,696.134C708.842,681.56 682.616,668.675 664.521,635.963C641.558,594.449 631.28,545.233 619.74,499.42L591.906,388.861C589.309,378.862 586.873,368.823 584.599,358.746C583.292,352.913 563.291,269.694 558.282,245.051C547.799,256.771 542.094,266.372 534.515,279.84C542.438,299.639 545.472,322.161 551.188,342.635C571.588,418.296 591.234,494.159 610.121,570.211C622.552,618.708 635.333,667.114 648.465,715.425L661.12,763.109C663.548,772.291 667.302,785.083 668.483,794.223C663.944,800.138 653.309,805.342 646.758,809.27C634.391,816.715 621.941,824.021 609.408,831.184C598.064,837.722 582.195,847.735 571.275,853.365C562.472,850.08 553.023,844.986 544.549,840.663C531.288,833.941 518.088,827.098 504.95,820.137C496.173,815.599 487.418,811.018 478.687,806.391C474.114,803.947 466.381,799.907 462.383,796.856C457.854,782.891 453.707,763.925 450.118,749.389L381.407,480.807L358.617,392.14C355.697,380.917 350.252,364.247 348.091,353.689C334.555,367.568 318.008,400.084 311.07,418.207C322.252,458.296 332.87,498.54 342.921,538.927L391.083,725.786L421.456,843.542C427.689,867.518 435.806,895.873 440.266,919.746C419.777,932.006 399.046,943.86 378.086,955.298C368.192,960.764 352.271,970.072 342.23,974.172C330.465,969.332 315.176,960.315 303.42,954.027C281.137,942.107 257.838,930.377 235.897,917.97C233.564,913.004 231.035,902.932 229.604,897.456L222.444,870.041C211.509,828.807 200.823,787.508 190.388,746.144L139.392,547.823L121.198,476.955C117.994,464.551 112.883,446.909 110.681,434.824C103.012,430.735 74.224,420.311 70.475,413.141C65.793,404.186 58.424,388.786 54.559,379.12C48.049,362.841 36.999,343.314 33.083,326.648C37.575,323.161 45.686,318.596 50.831,315.547L82.695,296.826L127.52,270.182C137.765,264.031 148.192,257.415 158.736,251.878C164.937,254.117 180.8,263.207 188.305,266.716C218.453,225.818 259.037,181.25 307.92,162.756C328.214,155.078 353.684,152.78 373.942,160.701C380.244,163.165 386.726,166.309 392.914,169.246C404.458,152.312 415.919,135.011 429.579,119.723C461.439,84.065 505.628,43.497 555.815,40.225ZM605.015,97.2C606.915,96.325 635.918,87.818 641.554,86.663C636.76,84.17 631.901,81.839 627.05,79.468C619.662,75.856 573.906,52.946 564.021,52.476C501.365,49.499 431.513,125.751 403.916,174.666C417.687,180.832 432.431,188.446 446.015,195.288C455.707,200.17 478.187,210.345 486.216,216.389C509.559,174.903 543.604,134.744 583.69,108.415C590.289,104.08 597.853,100.499 605.015,97.2Z" style="fill:rgb(133,33,192);fill-rule:nonzero;"/>
    <path d="M644.065,100.202C689.153,94.796 715.98,138.578 729.433,175.047C740.162,204.13 747.519,233.834 754.739,263.913C759.625,284.531 764.706,305.102 769.983,325.623L820.876,526.482C823.915,538.509 827.036,550.516 830.237,562.501C834.844,579.711 839.269,600.523 850.596,614.475C863.791,630.728 885.953,621.305 898.395,609.368C922.802,585.952 933.126,541.754 934.57,508.893C943.711,506.714 952.736,504.075 961.611,500.985C967.071,519.66 973.624,538.945 979.526,557.583C976.546,564.921 974.36,572.399 971.475,579.813C951.334,631.557 917.877,684.739 866.26,709.608C849.964,717.029 830.87,721.308 813.657,714.674C787.331,704.529 773.304,677.109 764.123,652.067C757.635,634.373 753.089,615.387 748.359,597.004C741.97,572.28 735.722,547.521 729.616,522.727L676.772,309.612C673.312,295.867 669.942,282.1 666.66,268.311C662.592,250.738 659.315,232.654 651.787,216.359C629.933,169.053 588.488,193.065 562.097,221.582C550.078,234.57 540.304,246.855 531.539,262.382C527.884,268.856 524.949,273.264 522.473,280.373C530.33,311.975 539.424,344.641 547.582,376.363L655.146,790.992C638.775,799.923 622.918,810.124 606.731,819.406C597.255,824.839 587.417,830.86 577.252,834.853C573.214,824.555 569.464,807.245 566.412,795.889C559.248,769.707 552.37,743.448 545.78,717.116C537.306,686.739 529.538,654.398 521.505,623.697L477.056,456.229L460.998,395.946C456.092,377.61 452.235,360.886 444.108,343.791C431.005,316.227 406.039,297.568 376.165,314.421C340.076,334.78 310.936,379.057 298.632,417.935C310.97,462.275 321.802,508.202 333.335,552.951L426.024,914.239C417.608,920.079 404.37,926.775 395.093,931.864C379.472,940.414 363.905,949.064 348.394,957.812C344.894,947.188 341.305,931.401 338.356,920.152L315.655,831.177L248.276,569.794L226.296,486.288C224.918,481.125 215.301,440.507 210.912,439.117C206.6,437.752 188.338,450.348 182.571,453.839C178.752,447.021 174.471,436.61 170.947,429.269C163.005,413.109 155.231,396.867 147.628,380.545C182.207,362.164 219.458,339.573 253.128,319.348C254.003,325.641 256.409,346.751 263.356,349.118C265.53,348.941 267.624,347.513 268.811,345.766C284.031,323.371 299.552,300.263 318.423,280.669C354.913,242.777 415.09,191.42 470.368,221.61C477.289,225.39 484.802,237.807 493.176,227.279C498.679,220.295 502.053,212.207 506.937,204.834C539.253,159.03 584.639,105.394 644.065,100.202Z" style="fill:rgb(0,217,254);fill-rule:nonzero;"/>
    <path d="M638.829,128.672C670.931,124.617 695.371,153.604 702.905,181.752C703.812,185.139 706.637,193.93 703.475,195.99C697.257,200.041 693.529,185.7 691.448,181.99C683.071,166.079 672.809,153.08 655.138,146.989C631.591,141.948 612.625,150.502 594.402,165.499C591.137,167.624 581.525,177.826 577.946,178.463C568.451,179.793 572.242,169.178 575.881,165.01C593.22,145.149 612.449,132.272 638.829,128.672Z" style="fill:rgb(255,254,254);fill-rule:nonzero;"/>
    <path d="M358.091,342.414C365.354,334.264 385.784,320.722 397.011,320.881C430.216,321.353 441.161,370.293 447.859,395.696L459.03,438.191L488.174,545.925L538.058,738.527L551.898,792.007C556.062,807.505 560.622,822.849 563.957,838.552C552.228,831.336 539.82,825.194 527.663,818.715L473.458,789.405L383.715,441.27C375.287,409.136 367.185,374.476 358.17,342.895L358.091,342.414Z" style="fill:rgb(208,149,242);fill-rule:nonzero;"/>
    <path d="M124.968,442.164C128.173,443.335 136.185,447.715 139.697,449.359C153.71,455.915 167.311,463.463 181.981,468.506C187.901,466.046 199.979,458.583 205.992,455.034C209.769,473.562 216.112,495.286 220.961,513.795L246.104,610.895L331.756,945.497C332.731,949.383 333.784,953.249 334.914,957.093C323.363,952.081 305.525,941.484 294.007,935.368C278.135,926.939 259.805,917.879 244.94,908.253C235.624,875.313 226.893,840.194 218.222,806.979L158.79,574.334L141.584,506.218C136.141,484.217 131.45,464.011 124.968,442.164Z" style="fill:rgb(208,149,242);fill-rule:nonzero;"/>
    <path d="M567.626,232.691C570.723,228.52 574.726,225.438 578.308,222.079C589.662,211.433 613.552,194.336 628.979,206.659C644.126,218.759 648.496,247.013 652.896,264.957L666.289,318.067L717.143,524.738C723.38,551.253 729.853,577.712 736.562,604.112C743.93,632.727 751.621,664.167 767.723,689.421C769.906,692.845 772.208,696.191 774.389,699.641C763.586,694.063 752.687,688.45 741.829,683.044C728.879,676.596 714.208,670.272 702.519,661.706C678.272,643.934 664.06,612.069 655.319,583.909C645.764,553.129 637.985,520.59 630.147,489.215L589.052,323.36L574.709,263.664C572.475,254.298 570.041,242.585 567.48,233.455L567.626,232.691Z" style="fill:rgb(208,149,242);fill-rule:nonzero;"/>
    <path d="M199.218,272.433C203.374,266.393 207.81,260.552 212.511,254.926C242.007,219.126 289.112,171.901 338.004,167.462C346.115,166.751 354.289,167.381 362.195,169.328C370.485,171.432 425.795,198.097 428.263,199.27C411.903,201.501 401.054,204.954 386.462,212.598C339.582,237.154 296.347,282.007 267.915,325.949C265.522,319.414 265.055,312.797 262.749,306.693C244.014,294.297 217.749,284.386 199.218,272.433Z" style="fill:rgb(255,254,254);fill-rule:nonzero;"/>
    <path d="M158.55,265.518C171.778,271.674 185.268,279.324 198.174,286.393C212.08,294.009 231.431,302.802 244.375,311.306C231.653,317.529 218.165,325.836 205.766,332.997C183.416,345.68 161.256,358.693 139.292,372.033C114.569,359.249 62.736,332.656 62.278,332.473C58.599,331.058 57.103,330.44 53.715,328.482C58.163,325.272 84.914,309.711 92.6,304.917C114.285,291.393 137.04,279.295 158.55,265.518Z" style="fill:rgb(255,254,254);fill-rule:nonzero;"/>
    <path d="M831.384,460.608C834.804,461.98 840.331,465.188 843.746,467.001C852.175,471.41 860.578,475.869 868.955,480.377C886.339,489.57 904.44,498.225 922.034,506.978C921.407,535.713 913.786,563.862 899.831,588.988C898.383,591.268 896.83,593.481 895.178,595.618C890.025,602.302 883.006,608.436 874.288,609.447C855.674,611.607 849.558,586.191 845.459,572.664C842.394,562.552 840.612,551.583 837.832,541.347C835.806,533.884 832.726,526.576 831.663,518.937C830.929,513.127 832.633,473.456 831.384,460.608Z" style="fill:rgb(255,254,254);fill-rule:nonzero;"/>
    <path d="M51.812,342.136C55.735,343.174 73.13,352.949 78.351,355.558C96.919,364.839 117.557,373.438 135.473,383.615C143.907,399.176 150.468,416.654 158.597,432.467C161.112,437.359 163.732,443.133 165.813,448.214C160.142,446.092 153.543,442.543 148.026,439.789L119.265,425.487C109.052,420.47 87.862,411.177 79.534,405.822C76.117,398.35 73.094,390.453 69.808,382.876L51.812,342.136Z" style="fill:rgb(208,149,242);fill-rule:nonzero;"/>
    <path d="M855.508,445.667C860.609,444.861 869.922,450.645 874.682,453.041C886.98,459.19 899.131,465.63 911.122,472.357C922.23,478.46 935.282,484.712 946.738,490.32C939.909,494.832 938.211,495.471 930.215,497.5C920.48,493.387 912.009,488.474 902.598,483.85C888.488,477.032 874.481,470.003 860.581,462.766C854.838,459.777 841.926,453.228 837.351,449.141C843.694,447.666 849.069,446.717 855.508,445.667Z" style="fill:rgb(255,254,254);fill-rule:nonzero;"/>
    <path d="M567.626,232.691L567.48,233.455C564.594,235.898 560.792,243.17 558.616,244.225C560.306,240.582 564.246,234.802 567.626,232.691Z" style="fill:rgb(95,19,150);fill-rule:nonzero;"/>
    <path d="M358.091,342.414L358.17,342.895C354.766,346.094 353.418,348.024 349.419,351.316C350.221,349.204 355.888,343.882 358.091,342.414Z" style="fill:rgb(95,19,150);fill-rule:nonzero;"/>
    <path d="M820.555,472.324C822.069,474.013 821.548,477.764 821.492,480.193C819.946,478.216 820.479,474.995 820.555,472.324Z" style="fill:rgb(95,19,150);fill-rule:nonzero;"/>
    <path d="M858.718,88.269C861.746,88.133 863.402,88.444 864.176,91.675C866.901,103.053 868.157,113.748 872.425,124.799C879.709,143.657 899.351,143.797 916.495,143.756C919.818,143.748 926.039,143.19 929.025,144.444C930.993,147.523 930.496,152.068 930.488,155.822C921.175,162.476 907.42,165.508 897.391,172.574C878.915,185.591 872.113,207.055 867.749,228.275C866.67,233.525 866.349,238.747 865.33,243.941C862.037,245.43 858.474,246.715 855.083,248C847.322,236.449 845.737,215.387 836.588,201.917C826.092,186.464 790.824,196.359 784.935,191.077C782.814,187.472 782.285,181.523 786.386,179.031C797.519,172.265 811.749,167.602 822.12,159.789C842.268,144.608 845.857,115.246 849.481,91.972C852.23,90.503 855.709,89.051 858.718,88.269Z" style="fill:rgb(133,33,192);fill-rule:nonzero;"/>
    <path d="M857.779,92.429C858.839,92.613 859.546,93.134 859.74,94.254C868.165,143.018 877.67,149.372 925.972,147.485L926.084,153.932C914.438,160.267 905.181,162.367 893.499,171.033C871.433,187.399 865.503,215.609 861.801,241.34L856.442,243.291C837.359,190.521 848.86,188.761 788.206,188.979C788.072,186.55 787.792,184.716 787.44,182.33C796.777,177.998 805.406,173.915 814.465,169.316C840.245,156.227 845.114,134.844 851.464,108.628C852.616,103.87 852.388,100.65 853.236,96.021C853.546,94.326 856.184,93.237 857.779,92.429Z" style="fill:rgb(178,240,248);fill-rule:nonzero;"/>
    <path d="M154.932,784.575C155.871,784.882 156.765,785.247 157.092,786.262C160.579,797.16 161.191,809.68 167.446,819.565C172.87,828.138 187.746,827.414 196.615,827.839C200.038,828.003 203.432,827.778 206.7,828.976C208.367,830.806 208.043,837.15 208.084,839.77C204.015,842.872 196.885,845.343 192.003,847.514C175.117,855.026 168.517,865.752 163.01,882.926C160.767,889.922 160.109,898.017 157.772,904.67C156.936,907.051 151.541,907.967 148.944,908.429C144.231,906.437 143.1,878.926 137.443,873.243C127.614,863.368 113.204,867.427 100.691,866.451C97.29,866.186 94.976,862.694 95.505,859.668C96.414,855.337 102.446,853.116 106.175,851.643C137.746,839.172 141.397,817.432 147.232,787.655C150.422,786.065 151.462,785.496 154.932,784.575Z" style="fill:rgb(133,33,192);fill-rule:nonzero;"/>
    <path d="M152.324,789.293C155.835,791.916 157.771,816.823 166.279,823.97C177.281,833.213 190.594,832.036 203.981,831.626L204.112,838.518C195.986,842.178 186.566,845.465 179.44,850.75C166.456,860.38 160.531,876.683 156.948,891.837C156.197,895.016 155.176,900.154 153.739,903.133C152.941,903.763 152.278,904.287 151.751,904.703L150.814,904.233C148.719,900.992 147.27,890.555 146.535,886.714C143.013,863.956 129.239,861.53 109.205,863.003C106.892,863.173 100.515,863.263 100.16,860.138C102.617,857.306 108.251,854.586 111.538,853.064C133.469,842.931 144.716,826.006 147.947,802.277C148.507,798.163 149.036,791.787 152.324,789.293Z" style="fill:rgb(178,240,248);fill-rule:nonzero;"/>
    <path d="M753.519,795.691C766.481,798.511 779.652,801.317 792.001,806.096C788.805,817.827 783.618,830.481 779.22,841.873C778.429,843.921 777.117,846.364 774.599,845.909C773.64,842.468 784.254,816.124 786.485,811.276L646.27,893.079C641.078,895.952 614.582,912.842 611.041,912.164C610.112,910.981 610.331,911.654 610.51,910.036C612.821,906.761 620.366,903.08 624.059,900.856C635.187,894.235 646.384,887.729 657.647,881.34L739.262,833.496C753.239,825.264 769.733,816.446 783.098,807.531C775.986,805.543 760.342,802.547 754.915,800.235C753.479,798.326 753.908,798.418 753.519,795.691Z" style="fill:rgb(133,33,192);fill-rule:nonzero;"/>
    <path d="M557.708,52.227C574.288,49.628 629.784,81.392 642.091,86.428C634.284,88.523 626.274,90.344 618.653,92.896C578.85,106.228 545.859,135.338 519.72,167.103C507.499,181.954 487.49,215.283 486.218,216.155C483.009,215.008 420.118,182.348 403.567,174.595C412.156,159.426 422.854,145.936 433.42,132.608C462.51,95.915 508.648,55.946 557.708,52.227Z" style="fill:rgb(254,254,254);fill-rule:nonzero;"/>
</svg>
